<svg xmlns="http://www.w3.org/2000/svg" xmlns:xlink="http://www.w3.org/1999/xlink" width="500" zoomAndPan="magnify" viewBox="0 0 375 374.999991" height="500" preserveAspectRatio="xMidYMid meet" version="1.0"><defs><g/><clipPath id="e5d3c720b8"><path d="M 0 166.4375 L 375 166.4375 L 375 216.828125 L 0 216.828125 Z M 0 166.4375 " clip-rule="nonzero"/></clipPath></defs><rect x="-37.5" width="450" fill="#ffffff" y="-37.499999" height="449.999989" fill-opacity="1"/><rect x="-37.5" width="450" fill="#ffffff" y="-37.499999" height="449.999989" fill-opacity="1"/><path stroke-linecap="butt" transform="matrix(0.00181951, -0.749998, 0.749998, 0.00181951, 187.858382, 337.493855)" fill="none" stroke-linejoin="miter" d="M -0.00176819 0.50133 L 405.431733 0.502118 " stroke="#000000" stroke-width="1" stroke-opacity="1" stroke-miterlimit="4"/><g fill="#000000" fill-opacity="1"><g transform="translate(3.501734, 277.663518)"><g><path d="M 54.359375 0 L 5.4375 0 L 5.4375 -1.8125 C 10.632812 -1.8125 14.410156 -3.378906 16.765625 -6.515625 C 19.117188 -9.660156 20.597656 -14.796875 21.203125 -21.921875 C 21.804688 -29.046875 22.109375 -38.53125 22.109375 -50.375 L 22.109375 -130.8125 C 22.109375 -142.769531 21.804688 -152.28125 21.203125 -159.34375 C 20.597656 -166.414062 19.117188 -171.519531 16.765625 -174.65625 C 14.410156 -177.800781 10.632812 -179.375 5.4375 -179.375 L 5.4375 -181.1875 L 54.359375 -181.1875 L 54.359375 -179.375 C 49.160156 -179.375 45.382812 -177.800781 43.03125 -174.65625 C 40.675781 -171.519531 39.195312 -166.414062 38.59375 -159.34375 C 37.988281 -152.28125 37.6875 -142.769531 37.6875 -130.8125 L 37.6875 -99.109375 C 38.769531 -101.523438 41.179688 -103.910156 44.921875 -106.265625 C 48.671875 -108.617188 53.265625 -109.796875 58.703125 -109.796875 C 64.742188 -109.796875 70.484375 -108.859375 75.921875 -106.984375 C 81.359375 -105.117188 86.671875 -103.25 91.859375 -101.375 C 97.054688 -99.5 102.3125 -98.5625 107.625 -98.5625 C 111.125 -98.5625 114.234375 -99.5 116.953125 -101.375 C 119.671875 -103.25 121.03125 -105.753906 121.03125 -108.890625 L 122.84375 -108.890625 C 122.84375 -103.578125 120.757812 -98.925781 116.59375 -94.9375 C 112.425781 -90.957031 106.78125 -88.96875 99.65625 -88.96875 C 94.09375 -88.96875 89.015625 -89.78125 84.421875 -91.40625 C 79.835938 -93.039062 75.550781 -94.882812 71.5625 -96.9375 C 67.582031 -98.988281 63.867188 -100.828125 60.421875 -102.453125 C 56.984375 -104.085938 53.632812 -104.90625 50.375 -104.90625 C 45.65625 -104.90625 42.359375 -103.300781 40.484375 -100.09375 C 38.617188 -96.894531 37.6875 -93.1875 37.6875 -88.96875 L 37.6875 -50.375 C 37.6875 -38.53125 37.988281 -29.046875 38.59375 -21.921875 C 39.195312 -14.796875 40.675781 -9.660156 43.03125 -6.515625 C 45.382812 -3.378906 49.160156 -1.8125 54.359375 -1.8125 Z M 111.609375 -179.375 L 111.609375 -181.1875 L 160.53125 -181.1875 L 160.53125 -179.375 C 155.332031 -179.375 151.554688 -177.800781 149.203125 -174.65625 C 146.847656 -171.519531 145.367188 -166.414062 144.765625 -159.34375 C 144.160156 -152.28125 143.859375 -142.769531 143.859375 -130.8125 L 143.859375 -50.375 C 143.859375 -38.53125 144.160156 -29.046875 144.765625 -21.921875 C 145.367188 -14.796875 146.847656 -9.660156 149.203125 -6.515625 C 151.554688 -3.378906 155.332031 -1.8125 160.53125 -1.8125 L 160.53125 0 L 111.609375 0 L 111.609375 -1.8125 C 116.804688 -1.8125 120.582031 -3.378906 122.9375 -6.515625 C 125.289062 -9.660156 126.769531 -14.796875 127.375 -21.921875 C 127.976562 -29.046875 128.28125 -38.53125 128.28125 -50.375 L 128.28125 -130.8125 C 128.28125 -142.769531 127.976562 -152.28125 127.375 -159.34375 C 126.769531 -166.414062 125.289062 -171.519531 122.9375 -174.65625 C 120.582031 -177.800781 116.804688 -179.375 111.609375 -179.375 Z M 111.609375 -179.375 "/></g></g></g><g fill="#000000" fill-opacity="1"><g transform="translate(222.547784, 277.663518)"><g><path d="M 10.875 -137.703125 C 10.875 -146.160156 13.378906 -153.953125 18.390625 -161.078125 C 23.398438 -168.203125 30.738281 -173.9375 40.40625 -178.28125 C 50.070312 -182.632812 61.847656 -184.8125 75.734375 -184.8125 C 86.847656 -184.8125 96.476562 -184.023438 104.625 -182.453125 C 112.78125 -180.878906 120.363281 -178.882812 127.375 -176.46875 L 127.375 -152.203125 L 125.5625 -152.203125 C 125.5625 -152.203125 125.078125 -153.226562 124.109375 -155.28125 C 123.140625 -157.332031 121.507812 -159.867188 119.21875 -162.890625 C 116.925781 -165.910156 113.875 -168.925781 110.0625 -171.9375 C 106.257812 -174.957031 101.519531 -177.492188 95.84375 -179.546875 C 90.164062 -181.609375 83.460938 -182.640625 75.734375 -182.640625 C 64.503906 -182.640625 54.992188 -180.644531 47.203125 -176.65625 C 39.410156 -172.664062 33.519531 -167.59375 29.53125 -161.4375 C 25.539062 -155.28125 23.546875 -148.816406 23.546875 -142.046875 C 23.546875 -135.890625 25.144531 -130.632812 28.34375 -126.28125 C 31.550781 -121.9375 35.898438 -118.191406 41.390625 -115.046875 C 46.890625 -111.910156 53.019531 -109.132812 59.78125 -106.71875 C 66.550781 -104.300781 73.5625 -101.882812 80.8125 -99.46875 C 88.0625 -97.050781 95.066406 -94.421875 101.828125 -91.578125 C 108.585938 -88.742188 114.71875 -85.332031 120.21875 -81.34375 C 125.71875 -77.363281 130.066406 -72.566406 133.265625 -66.953125 C 136.460938 -61.335938 138.0625 -54.539062 138.0625 -46.5625 C 138.0625 -40.28125 136.488281 -34.148438 133.34375 -28.171875 C 130.207031 -22.191406 125.679688 -16.816406 119.765625 -12.046875 C 113.847656 -7.273438 106.722656 -3.46875 98.390625 -0.625 C 90.054688 2.207031 80.632812 3.625 70.125 3.625 C 62.144531 3.625 54.53125 2.472656 47.28125 0.171875 C 40.039062 -2.117188 33.398438 -4.984375 27.359375 -8.421875 C 21.316406 -11.867188 16.0625 -15.222656 11.59375 -18.484375 L 11.59375 -42.765625 L 13.40625 -42.765625 C 13.40625 -42.765625 14.34375 -41.3125 16.21875 -38.40625 C 18.09375 -35.507812 20.867188 -31.914062 24.546875 -27.625 C 28.234375 -23.34375 32.765625 -19.054688 38.140625 -14.765625 C 43.515625 -10.472656 49.734375 -6.878906 56.796875 -3.984375 C 63.867188 -1.085938 71.691406 0.359375 80.265625 0.359375 C 86.910156 0.359375 93.097656 -0.722656 98.828125 -2.890625 C 104.566406 -5.066406 109.582031 -8.023438 113.875 -11.765625 C 118.164062 -15.515625 121.519531 -19.742188 123.9375 -24.453125 C 126.351562 -29.171875 127.5625 -34.066406 127.5625 -39.140625 C 127.5625 -45.898438 125.925781 -51.722656 122.65625 -56.609375 C 119.394531 -61.503906 114.988281 -65.703125 109.4375 -69.203125 C 103.882812 -72.710938 97.632812 -75.851562 90.6875 -78.625 C 83.738281 -81.40625 76.578125 -84.0625 69.203125 -86.59375 C 61.835938 -89.132812 54.679688 -91.851562 47.734375 -94.75 C 40.796875 -97.65625 34.546875 -101.007812 28.984375 -104.8125 C 23.429688 -108.625 19.023438 -113.21875 15.765625 -118.59375 C 12.503906 -123.96875 10.875 -130.335938 10.875 -137.703125 Z M 10.875 -137.703125 "/></g></g></g><g clip-path="url(#e5d3c720b8)"><path fill="#ffffff" d="M -26.625 166.4375 L 406.039062 166.4375 L 406.039062 216.828125 L -26.625 216.828125 Z M -26.625 166.4375 " fill-opacity="1" fill-rule="nonzero"/></g><g fill="#000000" fill-opacity="1"><g transform="translate(2.450619, 200.85028)"><g><path d="M 19.96875 -20 L 19.96875 0 L 17.890625 0 L 17.890625 -9.234375 L 5.375 -9.234375 L 5.375 0 L 3.265625 0 L 3.265625 -20 L 5.375 -20 L 5.375 -11.09375 L 17.890625 -11.09375 L 17.890625 -20 Z M 19.96875 -20 "/></g></g></g><g fill="#000000" fill-opacity="1"><g transform="translate(34.789392, 200.85028)"><g><path d="M 17.40625 -1.828125 L 17.40625 0 L 3.265625 0 L 3.265625 -20 L 16.96875 -20 L 16.96875 -18.171875 L 5.375 -18.171875 L 5.375 -11.0625 L 15.71875 -11.0625 L 15.71875 -9.265625 L 5.375 -9.265625 L 5.375 -1.828125 Z M 17.40625 -1.828125 "/></g></g></g><g fill="#000000" fill-opacity="1"><g transform="translate(63.015133, 200.85028)"><g><path d="M 24.03125 -20 L 24.03125 0 L 22 0 L 22 -16 L 14.140625 -2.546875 L 13.140625 -2.546875 L 5.28125 -15.921875 L 5.28125 0 L 3.265625 0 L 3.265625 -20 L 5 -20 L 13.6875 -5.171875 L 22.296875 -20 Z M 24.03125 -20 "/></g></g></g><g fill="#000000" fill-opacity="1"><g transform="translate(99.409801, 200.85028)"><g><path d="M 15.796875 -5.34375 L 4.65625 -5.34375 L 2.25 0 L 0.0625 0 L 9.203125 -20 L 11.28125 -20 L 20.4375 0 L 18.203125 0 Z M 15.03125 -7.0625 L 10.234375 -17.796875 L 5.4375 -7.0625 Z M 15.03125 -7.0625 "/></g></g></g><g fill="#000000" fill-opacity="1"><g transform="translate(129.006568, 200.85028)"><g><path d="M 19.96875 -20 L 19.96875 0 L 18.234375 0 L 5.375 -16.234375 L 5.375 0 L 3.265625 0 L 3.265625 -20 L 5 -20 L 17.890625 -3.765625 L 17.890625 -20 Z M 19.96875 -20 "/></g></g></g><g fill="#000000" fill-opacity="1"><g transform="translate(161.345341, 200.85028)"><g><path d="M 7.140625 -18.171875 L 0.109375 -18.171875 L 0.109375 -20 L 16.296875 -20 L 16.296875 -18.171875 L 9.265625 -18.171875 L 9.265625 0 L 7.140625 0 Z M 7.140625 -18.171875 "/></g></g></g><g fill="#000000" fill-opacity="1"><g transform="translate(186.857644, 200.85028)"><g/></g></g><g fill="#000000" fill-opacity="1"><g transform="translate(203.458358, 200.85028)"><g><path d="M 8.78125 0.171875 C 7.289062 0.171875 5.863281 -0.0625 4.5 -0.53125 C 3.132812 -1.007812 2.082031 -1.640625 1.34375 -2.421875 L 2.171875 -4.0625 C 2.898438 -3.332031 3.863281 -2.742188 5.0625 -2.296875 C 6.257812 -1.847656 7.5 -1.625 8.78125 -1.625 C 10.5625 -1.625 11.898438 -1.953125 12.796875 -2.609375 C 13.691406 -3.265625 14.140625 -4.117188 14.140625 -5.171875 C 14.140625 -5.972656 13.894531 -6.609375 13.40625 -7.078125 C 12.925781 -7.554688 12.332031 -7.925781 11.625 -8.1875 C 10.925781 -8.445312 9.945312 -8.726562 8.6875 -9.03125 C 7.1875 -9.414062 5.988281 -9.78125 5.09375 -10.125 C 4.195312 -10.476562 3.425781 -11.015625 2.78125 -11.734375 C 2.144531 -12.460938 1.828125 -13.445312 1.828125 -14.6875 C 1.828125 -15.695312 2.09375 -16.613281 2.625 -17.4375 C 3.15625 -18.269531 3.972656 -18.929688 5.078125 -19.421875 C 6.191406 -19.921875 7.566406 -20.171875 9.203125 -20.171875 C 10.347656 -20.171875 11.46875 -20.015625 12.5625 -19.703125 C 13.65625 -19.390625 14.601562 -18.957031 15.40625 -18.40625 L 14.6875 -16.71875 C 13.851562 -17.269531 12.957031 -17.679688 12 -17.953125 C 11.050781 -18.234375 10.117188 -18.375 9.203125 -18.375 C 7.453125 -18.375 6.132812 -18.035156 5.25 -17.359375 C 4.363281 -16.679688 3.921875 -15.8125 3.921875 -14.75 C 3.921875 -13.945312 4.160156 -13.300781 4.640625 -12.8125 C 5.128906 -12.332031 5.738281 -11.960938 6.46875 -11.703125 C 7.207031 -11.441406 8.195312 -11.160156 9.4375 -10.859375 C 10.894531 -10.492188 12.078125 -10.132812 12.984375 -9.78125 C 13.890625 -9.4375 14.65625 -8.90625 15.28125 -8.1875 C 15.914062 -7.46875 16.234375 -6.5 16.234375 -5.28125 C 16.234375 -4.269531 15.960938 -3.347656 15.421875 -2.515625 C 14.878906 -1.691406 14.046875 -1.035156 12.921875 -0.546875 C 11.796875 -0.0664062 10.414062 0.171875 8.78125 0.171875 Z M 8.78125 0.171875 "/></g></g></g><g fill="#000000" fill-opacity="1"><g transform="translate(230.141717, 200.85028)"><g><path d="M 15.796875 -5.34375 L 4.65625 -5.34375 L 2.25 0 L 0.0625 0 L 9.203125 -20 L 11.28125 -20 L 20.4375 0 L 18.203125 0 Z M 15.03125 -7.0625 L 10.234375 -17.796875 L 5.4375 -7.0625 Z M 15.03125 -7.0625 "/></g></g></g><g fill="#000000" fill-opacity="1"><g transform="translate(259.738495, 200.85028)"><g><path d="M 7.140625 -18.171875 L 0.109375 -18.171875 L 0.109375 -20 L 16.296875 -20 L 16.296875 -18.171875 L 9.265625 -18.171875 L 9.265625 0 L 7.140625 0 Z M 7.140625 -18.171875 "/></g></g></g><g fill="#000000" fill-opacity="1"><g transform="translate(285.250788, 200.85028)"><g><path d="M 30.71875 -20 L 23.984375 0 L 21.75 0 L 15.890625 -17.0625 L 10 0 L 7.796875 0 L 1.0625 -20 L 3.234375 -20 L 9 -2.796875 L 14.96875 -20 L 16.953125 -20 L 22.828125 -2.71875 L 28.6875 -20 Z M 30.71875 -20 "/></g></g></g><g fill="#000000" fill-opacity="1"><g transform="translate(326.101233, 200.85028)"><g><path d="M 15.796875 -5.34375 L 4.65625 -5.34375 L 2.25 0 L 0.0625 0 L 9.203125 -20 L 11.28125 -20 L 20.4375 0 L 18.203125 0 Z M 15.03125 -7.0625 L 10.234375 -17.796875 L 5.4375 -7.0625 Z M 15.03125 -7.0625 "/></g></g></g><g fill="#000000" fill-opacity="1"><g transform="translate(355.698012, 200.85028)"><g><path d="M 3.265625 -20 L 5.375 -20 L 5.375 -1.828125 L 16.578125 -1.828125 L 16.578125 0 L 3.265625 0 Z M 3.265625 -20 "/></g></g></g></svg>